<svg width="20" height="20" viewBox="0 0 20 20" fill="none" xmlns="http://www.w3.org/2000/svg">
<path d="M6.84767 19.9839L1.10599 19.9895C0.575541 19.99 0.145209 19.5602 0.145055 19.0297L0.141744 7.59814C0.141655 7.29003 0.29015 7.0008 0.540572 6.82131L9.48738 0.408793C9.82677 0.165545 10.2848 0.170866 10.6184 0.421933L19.4773 7.08835C19.7172 7.26884 19.8583 7.55158 19.8583 7.85176L19.8582 19.0368C19.8582 19.5682 19.4264 19.9986 18.895 19.9968L13.1595 19.9777C12.6306 19.9759 12.2027 19.5467 12.2027 19.0177V13.4063L7.80355 13.407L7.80674 19.0233C7.80704 19.5534 7.37771 19.9833 6.84767 19.9839Z" fill="white"/>
</svg>
