<svg width="20" height="20" viewBox="0 0 20 20" fill="none" xmlns="http://www.w3.org/2000/svg">
<g opacity="0.89">
<path d="M3.12327 4.90853C3.04375 4.362 3.42233 3.85449 3.96886 3.77497L11.8855 2.62307C12.432 2.54355 12.9395 2.92214 13.0191 3.46867L13.2 4.71214H15.2211L14.8542 2.19111C14.6952 1.09805 13.6802 0.340883 12.5871 0.499927L2.69131 1.93979C1.59825 2.09884 0.841079 3.11387 1.00012 4.20693L2.43999 14.1027C2.58495 15.099 3.44103 15.8162 4.41915 15.815V13.8871C4.41915 13.8389 4.41567 13.7908 4.40873 13.7431L3.12327 4.90853Z" fill="#737373"/>
<path d="M10.7211 15.6159V9.38413C10.7211 9.22233 10.9032 9.12749 11.0357 9.22028L15.487 12.3362C15.6007 12.4158 15.6007 12.5842 15.487 12.6638L11.0357 15.7797C10.9032 15.8725 10.7211 15.7777 10.7211 15.6159Z" fill="#737373"/>
<path fill-rule="evenodd" clip-rule="evenodd" d="M17.7211 5.5H7.72105C6.61648 5.5 5.72105 6.39543 5.72105 7.5V17.5C5.72105 18.6046 6.61648 19.5 7.72105 19.5H17.7211C18.8256 19.5 19.7211 18.6046 19.7211 17.5V7.5C19.7211 6.39543 18.8256 5.5 17.7211 5.5ZM16.7211 7.5L8.72105 7.5C8.16877 7.5 7.72105 7.94772 7.72105 8.5V16.5C7.72105 17.0523 8.16877 17.5 8.72105 17.5H16.7211C17.2733 17.5 17.7211 17.0523 17.7211 16.5V8.5C17.7211 7.94771 17.2733 7.5 16.7211 7.5Z" fill="#737373"/>
<path d="M7.72119 5.99951H17.7212C18.5494 5.99959 19.2209 6.67136 19.2212 7.49951V17.5005C19.2209 18.3286 18.5494 19.0004 17.7212 19.0005H7.72119C6.89293 19.0005 6.22146 18.3287 6.22119 17.5005V7.49951C6.22145 6.67131 6.89293 5.99951 7.72119 5.99951ZM8.72119 6.99951C7.89276 6.99951 7.22119 7.67206 7.22119 8.50049V16.5005C7.22146 17.3287 7.89293 18.0005 8.72119 18.0005H16.7212C17.5496 18.0004 18.2212 17.3279 18.2212 16.4995V8.49951C18.2209 7.67136 17.5494 6.99959 16.7212 6.99951H8.72119ZM12.6587 0.994629C13.4785 0.875346 14.2406 1.44339 14.3599 2.26318L14.6431 4.2124H13.6323L13.5142 3.39697C13.3949 2.57732 12.6336 2.0094 11.814 2.12842L3.89697 3.27979C3.07718 3.39907 2.50914 4.16116 2.62842 4.98096L3.91357 13.8149C3.91704 13.8388 3.91943 13.8631 3.91943 13.8872V15.228C3.41178 15.048 3.01801 14.6007 2.93506 14.0308L1.49463 4.13525C1.37536 3.31552 1.94349 2.55443 2.76318 2.43506L12.6587 0.994629ZM14.8491 12.4995L11.2212 15.0386V9.96045L14.8491 12.4995Z" stroke="#737373"/>
</g>
</svg>
