<svg xmlns="http://www.w3.org/2000/svg" viewBox="0 0 39 16" width="39" height="16">
  <g fill="#bcbcbc">
    <path d="M0 8C0 9.87632 0.645949 11.6018 1.7276 12.9661L2.46553 12.3819C1.51113 11.178 0.941177 9.65557 0.941177 8C0.941177 6.42141 1.45936 4.96384 2.33491 3.78813L1.57956 3.22654C0.587274 4.55902 0 6.21093 0 8Z"/>
    <path d="M16 8C16 6.21093 15.4127 4.55902 14.4204 3.22654L13.6651 3.78813C14.5406 4.96384 15.0588 6.42141 15.0588 8C15.0588 9.65557 14.4889 11.178 13.5345 12.3819L14.2724 12.9661C15.3541 11.6018 16 9.87632 16 8Z"/>
    <path d="M8 0C9.83269 0 11.5214 0.616258 12.8703 1.65286L12.2974 2.39958C11.1072 1.48493 9.61708 0.941177 8 0.941177C6.38293 0.941177 4.89285 1.48493 3.70265 2.39957L3.12967 1.65285C4.47857 0.616256 6.16732 0 8 0Z"/>
    <path d="M8 2.19608C9.3296 2.19608 10.5548 2.64317 11.5334 3.39521L10.9604 4.14193C10.1405 3.51184 9.11399 3.13726 8 3.13726C6.88602 3.13726 5.85952 3.51184 5.0396 4.14193L4.46662 3.39521C5.44523 2.64317 6.67041 2.19608 8 2.19608Z"/>
    <path d="M3.34204 4.5369L4.09738 5.09849C3.49423 5.90843 3.13726 6.91253 3.13726 8C3.13726 9.14051 3.52989 10.1893 4.18737 11.0186L3.44944 11.6029C2.66471 10.613 2.19608 9.36125 2.19608 8C2.19608 6.70205 2.62214 5.5036 3.34204 4.5369Z"/>
    <path d="M12.8627 8C12.8627 9.14051 12.4701 10.1893 11.8126 11.0186L12.5506 11.6029C13.3353 10.613 13.8039 9.36125 13.8039 8C13.8039 6.70205 13.3779 5.5036 12.658 4.5369L11.9026 5.09849C12.5058 5.90843 12.8627 6.91253 12.8627 8Z"/>
    <path d="M10.3529 8C10.3529 9.29949 9.29949 10.3529 8 10.3529C6.70051 10.3529 5.64706 9.29949 5.64706 8C5.64706 6.70051 6.70051 5.64706 8 5.64706C9.29949 5.64706 10.3529 6.70051 10.3529 8Z"/>
    <path d="M2.87389 14.1422C3.75688 12.4329 5.53805 11.2941 7.5516 11.2941H8.4484C10.462 11.2941 12.2431 12.4329 13.1261 14.1422C11.7379 15.302 9.95045 16 8 16C6.04955 16 4.26212 15.302 2.87389 14.1422Z"/>
    <path fill-rule="evenodd" clip-rule="evenodd" d="M19.03 7.22298C19.5033 7.57631 20.1333 7.75298 20.92 7.75298C21.4133 7.75298 21.8567 7.66965 22.25 7.50298C22.65 7.33631 22.9633 7.09631 23.19 6.78298C23.4233 6.46965 23.54 6.09298 23.54 5.65298C23.54 5.28631 23.4367 4.95298 23.23 4.65298C23.0233 4.35298 22.72 4.13965 22.32 4.01298C22.66 3.88631 22.92 3.69298 23.1 3.43298C23.28 3.17298 23.37 2.87298 23.37 2.53298C23.37 2.11298 23.2567 1.74965 23.03 1.44298C22.81 1.13631 22.5133 0.90298 22.14 0.74298C21.7667 0.576314 21.3567 0.492981 20.91 0.492981C20.1833 0.492981 19.59 0.672981 19.13 1.03298C18.67 1.39298 18.37 1.87298 18.23 2.47298H19.75C19.81 2.29298 19.9333 2.14965 20.12 2.04298C20.3067 1.92965 20.5333 1.87298 20.8 1.87298C21.0933 1.87298 21.3333 1.93631 21.52 2.06298C21.7067 2.18298 21.8 2.37298 21.8 2.63298C21.8 2.87298 21.71 3.06631 21.53 3.21298C21.35 3.35298 21.1133 3.42298 20.82 3.42298H20V4.75298H20.88C21.1867 4.75298 21.44 4.81965 21.64 4.95298C21.84 5.07965 21.94 5.27298 21.94 5.53298C21.94 5.82631 21.8367 6.03965 21.63 6.17298C21.43 6.30631 21.1867 6.37298 20.9 6.37298C20.6133 6.37298 20.3633 6.31965 20.15 6.21298C19.9433 6.10631 19.8033 5.95298 19.73 5.75298H18.17C18.27 6.37298 18.5567 6.86298 19.03 7.22298ZM24.683 0.642981V7.60298H27.393C28.1064 7.60298 28.7297 7.45965 29.263 7.17298C29.7964 6.88631 30.2064 6.48298 30.493 5.96298C30.7864 5.44298 30.933 4.82965 30.933 4.12298C30.933 3.41631 30.7864 2.80298 30.493 2.28298C30.2064 1.76298 29.7964 1.35965 29.263 1.07298C28.7297 0.786314 28.1064 0.642981 27.393 0.642981H24.683ZM27.293 6.19298H26.313V2.05298H27.293C27.8997 2.05298 28.383 2.23298 28.743 2.59298C29.103 2.95298 29.283 3.46298 29.283 4.12298C29.283 4.78298 29.103 5.29298 28.743 5.65298C28.383 6.01298 27.8997 6.19298 27.293 6.19298ZM29.0644 15.235C29.3364 15.4163 29.6537 15.507 30.0164 15.507C30.331 15.507 30.6057 15.435 30.8404 15.291C31.0804 15.1416 31.275 14.939 31.4244 14.683V15.403H32.0004V9.60297H31.4084V12.019C31.259 11.7683 31.0644 11.5736 30.8244 11.435C30.5897 11.291 30.3204 11.219 30.0164 11.219C29.6537 11.219 29.3364 11.3096 29.0644 11.491C28.7924 11.6723 28.579 11.9256 28.4244 12.251C28.2697 12.571 28.1924 12.9416 28.1924 13.363C28.1924 13.7843 28.2697 14.1576 28.4244 14.483C28.579 14.803 28.7924 15.0536 29.0644 15.235ZM30.7924 14.755C30.595 14.8883 30.3657 14.955 30.1044 14.955C29.8484 14.955 29.6217 14.8883 29.4244 14.755C29.227 14.6216 29.0724 14.435 28.9604 14.195C28.8484 13.955 28.7924 13.6776 28.7924 13.363C28.7924 13.0483 28.8484 12.771 28.9604 12.531C29.0724 12.291 29.227 12.1043 29.4244 11.971C29.6217 11.8376 29.8484 11.771 30.1044 11.771C30.3657 11.771 30.595 11.8376 30.7924 11.971C30.995 12.1043 31.1524 12.291 31.2644 12.531C31.3817 12.771 31.4404 13.0483 31.4404 13.363C31.4404 13.6776 31.3817 13.955 31.2644 14.195C31.1524 14.435 30.995 14.6216 30.7924 14.755ZM22.464 15.403L21.832 13.811H19.272L18.648 15.403H18L20.248 9.83497H20.88L23.136 15.403H22.464ZM21.608 13.243L20.552 10.571L19.496 13.243H21.608ZM26.5971 13.763V11.323H27.1891V15.403H26.6131V14.819C26.4798 15.0376 26.3065 15.2083 26.0931 15.331C25.8798 15.4483 25.6425 15.507 25.3811 15.507C24.9225 15.507 24.5571 15.355 24.2851 15.051C24.0185 14.7416 23.8851 14.3363 23.8851 13.835V11.323H24.4771V13.763C24.4771 14.1256 24.5705 14.4163 24.7571 14.635C24.9438 14.8483 25.1945 14.955 25.5091 14.955C25.8078 14.955 26.0638 14.851 26.2771 14.643C26.4905 14.435 26.5971 14.1416 26.5971 13.763ZM33.5571 10.699C33.4344 10.699 33.3277 10.6563 33.2371 10.571C33.1517 10.4803 33.1091 10.3736 33.1091 10.251C33.1091 10.1283 33.1517 10.0243 33.2371 9.93897C33.3277 9.8483 33.4344 9.80297 33.5571 9.80297C33.6797 9.80297 33.7837 9.8483 33.8691 9.93897C33.9597 10.0243 34.0051 10.1283 34.0051 10.251C34.0051 10.3736 33.9597 10.4803 33.8691 10.571C33.7837 10.6563 33.6797 10.699 33.5571 10.699ZM35.7764 15.235C36.0698 15.4163 36.4058 15.507 36.7844 15.507C37.1631 15.507 37.4964 15.4163 37.7844 15.235C38.0778 15.0536 38.3044 14.803 38.4644 14.483C38.6298 14.1576 38.7124 13.7843 38.7124 13.363C38.7124 12.9416 38.6298 12.571 38.4644 12.251C38.3044 11.9256 38.0778 11.6723 37.7844 11.491C37.4964 11.3096 37.1631 11.219 36.7844 11.219C36.4058 11.219 36.0698 11.3096 35.7764 11.491C35.4884 11.6723 35.2618 11.9256 35.0964 12.251C34.9364 12.571 34.8564 12.9416 34.8564 13.363C34.8564 13.7843 34.9364 14.1576 35.0964 14.483C35.2618 14.803 35.4884 15.0536 35.7764 15.235ZM37.7364 14.523C37.4911 14.811 37.1738 14.955 36.7844 14.955C36.3951 14.955 36.0751 14.811 35.8244 14.523C35.5791 14.2296 35.4564 13.843 35.4564 13.363C35.4564 12.883 35.5791 12.499 35.8244 12.211C36.0751 11.9176 36.3951 11.771 36.7844 11.771C37.1738 11.771 37.4911 11.9176 37.7364 12.211C37.9871 12.499 38.1124 12.883 38.1124 13.363C38.1124 13.843 37.9871 14.2296 37.7364 14.523ZM33.2611 15.403V11.323H33.8531V15.403H33.2611Z"/>
  </g>
</svg>
