<?xml version="1.0" encoding="UTF-8"?>
<svg xmlns="http://www.w3.org/2000/svg" viewBox="23.0 24.5 26.1 22.799999999999997" width="24" height="24">
<g transform="translate(39.81199645996094,33.90599822998047)" opacity="1">
    <g opacity="1" transform="translate(0,0)">
      <path stroke-linecap="butt" stroke-linejoin="miter" fill="none" stroke-miterlimit="4"
            stroke="rgb(255,255,255)" stroke-opacity="1" stroke-width="2"
            d="M-2.75,-9 C-2.75,-9 -1.4119999408721924,-9 -1.4119999408721924,-9 C-0.12099999934434891,-9 1.034999966621399,-8.175000190734863 1.3309999704360962,-6.918000221252441 C1.5509999990463257,-5.982999801635742 1.75,-4.892000198364258 1.75,-4 C1.75,-3.305000066757202 1.628999948501587,-2.6110000610351562 1.472000002861023,-2 C1.472000002861023,-2 4.25,-2 4.25,-2 C5.63100004196167,-2 6.75,-0.8809999823570251 6.75,0.5 C6.75,0.652999997138977 6.736000061035156,0.8029999732971191 6.710000038146973,0.9480000138282776 C7.047999858856201,1.3739999532699585 7.25,1.9140000343322754 7.25,2.5 C7.25,3.0859999656677246 7.047999858856201,3.625999927520752 6.710000038146973,4.052000045776367 C6.736000061035156,4.197000026702881 6.75,4.3470001220703125 6.75,4.5 C6.75,5.317999839782715 6.35699987411499,6.044000148773193 5.75,6.5 C5.75,7.88100004196167 4.63100004196167,9 3.25,9 C3.25,9 -0.34599998593330383,9 -0.34599998593330383,9 C-1.6019999980926514,9 -2.8450000286102295,8.744999885559082 -4,8.25 C-4,8.25 -4.822999954223633,7.896999835968018 -4.822999954223633,7.896999835968018 C-5.434999942779541,7.635000228881836 -6.093999862670898,7.5 -6.758999824523926,7.5 C-7.03000020980835,7.5 -7.25,7.28000020980835 -7.25,7.008999824523926 C-7.25,7.008999824523926 -7.25,1.6180000305175781 -7.25,1.6180000305175781 C-7.25,1.2389999628067017 -7.035999774932861,0.8930000066757202 -6.697000026702881,0.7239999771118164 C-6.697000026702881,0.7239999771118164 -5.8460001945495605,0.2980000078678131 -5.8460001945495605,0.2980000078678131 C-5.459000110626221,0.10400000214576721 -5.145999908447266,-0.20900000631809235 -4.952000141143799,-0.5960000157356262 C-4.952000141143799,-0.5960000157356262 -3.3559999465942383,-3.7890000343322754 -3.3559999465942383,-3.7890000343322754 C-3.2869999408721924,-3.927999973297119 -3.25,-4.080999851226807 -3.25,-4.236000061035156 C-3.25,-4.236000061035156 -3.25,-8.5 -3.25,-8.5 C-3.25,-8.776000022888184 -3.0260000228881836,-9 -2.75,-9z"/>
    </g>
  </g>

  <g transform="translate(32.3120002746582,37.90700149536133)" opacity="1">
    <g opacity="1" transform="translate(0,0)">
      <path stroke-linecap="butt" stroke-linejoin="miter" fill="none" stroke-miterlimit="4"
            stroke="rgb(255,255,255)" stroke-opacity="1" stroke-width="2"
            d="M-2.75,-9 C-2.75,-9 -1.4119999408721924,-9 -1.4119999408721924,-9 C-0.12099999934434891,-9 1.034999966621399,-8.175000190734863 1.3309999704360962,-6.918000221252441 C1.5509999990463257,-5.982999801635742 1.75,-4.892000198364258 1.75,-4 C1.75,-3.305000066757202 1.628999948501587,-2.6110000610351562 1.472000002861023,-2 C1.472000002861023,-2 4.25,-2 4.25,-2 C5.63100004196167,-2 6.75,-0.8809999823570251 6.75,0.5 C6.75,0.652999997138977 6.736000061035156,0.8029999732971191 6.710000038146973,0.9480000138282776 C7.047999858856201,1.3739999532699585 7.25,1.9140000343322754 7.25,2.5 C7.25,3.0859999656677246 7.047999858856201,3.625999927520752 6.710000038146973,4.052000045776367 C6.736000061035156,4.197000026702881 6.75,4.3470001220703125 6.75,4.5 C6.75,5.317999839782715 6.35699987411499,6.044000148773193 5.75,6.5 C5.75,7.88100004196167 4.63100004196167,9 3.25,9 C3.25,9 -0.34599998593330383,9 -0.34599998593330383,9 C-1.6019999980926514,9 -2.8450000286102295,8.744999885559082 -4,8.25 C-4,8.25 -4.822999954223633,7.896999835968018 -4.822999954223633,7.896999835968018 C-5.434999942779541,7.635000228881836 -6.093999862670898,7.5 -6.758999824523926,7.5 C-7.03000020980835,7.5 -7.25,7.28000020980835 -7.25,7.008999824523926 C-7.25,7.008999824523926 -7.25,1.6180000305175781 -7.25,1.6180000305175781 C-7.25,1.2389999628067017 -7.035999774932861,0.8930000066757202 -6.697000026702881,0.7239999771118164 C-6.697000026702881,0.7239999771118164 -5.8460001945495605,0.2980000078678131 -5.8460001945495605,0.2980000078678131 C-5.459000110626221,0.10400000214576721 -5.145999908447266,-0.20900000631809235 -4.952000141143799,-0.5960000157356262 C-4.952000141143799,-0.5960000157356262 -3.3559999465942383,-3.7890000343322754 -3.3559999465942383,-3.7890000343322754 C-3.2869999408721924,-3.927999973297119 -3.25,-4.080999851226807 -3.25,-4.236000061035156 C-3.25,-4.236000061035156 -3.25,-8.5 -3.25,-8.5 C-3.25,-8.776000022888184 -3.0260000228881836,-9 -2.75,-9z"/>
    </g>
  </g>
</svg>
